<mxfile host="app.diagrams.net" modified="2020-06-17T09:00:30.383Z" agent="5.0 (Windows NT 6.1; Win64; x64) AppleWebKit/537.36 (KHTML, like Gecko) Chrome/81.0.4044.138 Safari/537.36" etag="yX9u9ZhXYjnyGeZWwn2z" version="13.2.4" type="github">
  <diagram id="sKC28Pc2WT2e9FzRaCjW" name="Page-1">
    <mxGraphModel dx="1069" dy="1059" grid="1" gridSize="10" guides="1" tooltips="1" connect="1" arrows="1" fold="1" page="1" pageScale="1" pageWidth="827" pageHeight="1169" math="0" shadow="0">
      <root>
        <mxCell id="0" />
        <mxCell id="1" parent="0" />
        <mxCell id="DqEBIRJADkIrMQfmdAqw-49" value="" style="rounded=0;whiteSpace=wrap;html=1;fillColor=#bac8d3;strokeColor=#23445d;" vertex="1" parent="1">
          <mxGeometry x="900" y="100" width="1570" height="940" as="geometry" />
        </mxCell>
        <mxCell id="DqEBIRJADkIrMQfmdAqw-30" value="" style="rounded=0;whiteSpace=wrap;html=1;fillColor=#dae8fc;strokeColor=#6c8ebf;" vertex="1" parent="1">
          <mxGeometry x="1100" y="320" width="1250" height="640" as="geometry" />
        </mxCell>
        <mxCell id="DqEBIRJADkIrMQfmdAqw-1" style="edgeStyle=orthogonalEdgeStyle;rounded=0;orthogonalLoop=1;jettySize=auto;html=1;strokeWidth=2;" edge="1" parent="1" source="DqEBIRJADkIrMQfmdAqw-2">
          <mxGeometry relative="1" as="geometry">
            <mxPoint x="1390" y="664.0000000000002" as="targetPoint" />
          </mxGeometry>
        </mxCell>
        <mxCell id="DqEBIRJADkIrMQfmdAqw-2" value="server-router&lt;br&gt;API接口" style="rounded=0;whiteSpace=wrap;html=1;fillColor=#fff2cc;strokeColor=#d6b656;" vertex="1" parent="1">
          <mxGeometry x="1250" y="401.5" width="80" height="525" as="geometry" />
        </mxCell>
        <mxCell id="DqEBIRJADkIrMQfmdAqw-3" value="bcbscan-web服务" style="text;html=1;align=center;verticalAlign=middle;resizable=0;points=[];autosize=1;fontStyle=1" vertex="1" parent="1">
          <mxGeometry x="1675" y="345" width="120" height="20" as="geometry" />
        </mxCell>
        <mxCell id="DqEBIRJADkIrMQfmdAqw-4" style="edgeStyle=orthogonalEdgeStyle;rounded=0;orthogonalLoop=1;jettySize=auto;html=1;entryX=0;entryY=0.5;entryDx=0;entryDy=0;strokeWidth=2;" edge="1" parent="1" source="DqEBIRJADkIrMQfmdAqw-5" target="DqEBIRJADkIrMQfmdAqw-12">
          <mxGeometry relative="1" as="geometry" />
        </mxCell>
        <mxCell id="DqEBIRJADkIrMQfmdAqw-5" value="controller&lt;br&gt;控制层" style="rounded=0;whiteSpace=wrap;html=1;fillColor=#fff2cc;strokeColor=#d6b656;" vertex="1" parent="1">
          <mxGeometry x="1400" y="401.5" width="80" height="525" as="geometry" />
        </mxCell>
        <mxCell id="DqEBIRJADkIrMQfmdAqw-6" style="edgeStyle=orthogonalEdgeStyle;rounded=0;orthogonalLoop=1;jettySize=auto;html=1;strokeWidth=2;" edge="1" parent="1" source="DqEBIRJADkIrMQfmdAqw-12">
          <mxGeometry relative="1" as="geometry">
            <mxPoint x="1740" y="429" as="targetPoint" />
          </mxGeometry>
        </mxCell>
        <mxCell id="DqEBIRJADkIrMQfmdAqw-7" style="edgeStyle=orthogonalEdgeStyle;rounded=0;orthogonalLoop=1;jettySize=auto;html=1;strokeWidth=2;" edge="1" parent="1" source="DqEBIRJADkIrMQfmdAqw-12">
          <mxGeometry relative="1" as="geometry">
            <mxPoint x="1740" y="519" as="targetPoint" />
          </mxGeometry>
        </mxCell>
        <mxCell id="DqEBIRJADkIrMQfmdAqw-8" style="edgeStyle=orthogonalEdgeStyle;rounded=0;orthogonalLoop=1;jettySize=auto;html=1;strokeWidth=2;" edge="1" parent="1" source="DqEBIRJADkIrMQfmdAqw-12">
          <mxGeometry relative="1" as="geometry">
            <mxPoint x="1740" y="609" as="targetPoint" />
          </mxGeometry>
        </mxCell>
        <mxCell id="DqEBIRJADkIrMQfmdAqw-9" style="edgeStyle=orthogonalEdgeStyle;rounded=0;orthogonalLoop=1;jettySize=auto;html=1;strokeWidth=2;" edge="1" parent="1" source="DqEBIRJADkIrMQfmdAqw-12">
          <mxGeometry relative="1" as="geometry">
            <mxPoint x="1740" y="709" as="targetPoint" />
          </mxGeometry>
        </mxCell>
        <mxCell id="DqEBIRJADkIrMQfmdAqw-10" style="edgeStyle=orthogonalEdgeStyle;rounded=0;orthogonalLoop=1;jettySize=auto;html=1;strokeWidth=2;" edge="1" parent="1" source="DqEBIRJADkIrMQfmdAqw-12">
          <mxGeometry relative="1" as="geometry">
            <mxPoint x="1740" y="799" as="targetPoint" />
          </mxGeometry>
        </mxCell>
        <mxCell id="DqEBIRJADkIrMQfmdAqw-11" style="edgeStyle=orthogonalEdgeStyle;rounded=0;orthogonalLoop=1;jettySize=auto;html=1;strokeWidth=2;" edge="1" parent="1" source="DqEBIRJADkIrMQfmdAqw-12">
          <mxGeometry relative="1" as="geometry">
            <mxPoint x="1740" y="899" as="targetPoint" />
          </mxGeometry>
        </mxCell>
        <mxCell id="DqEBIRJADkIrMQfmdAqw-12" value="service&lt;br&gt;业务层" style="rounded=0;whiteSpace=wrap;html=1;fillColor=#fff2cc;strokeColor=#d6b656;" vertex="1" parent="1">
          <mxGeometry x="1550" y="401.5" width="80" height="525" as="geometry" />
        </mxCell>
        <mxCell id="DqEBIRJADkIrMQfmdAqw-13" style="edgeStyle=orthogonalEdgeStyle;rounded=0;orthogonalLoop=1;jettySize=auto;html=1;entryX=0.014;entryY=0.055;entryDx=0;entryDy=0;entryPerimeter=0;strokeWidth=2;" edge="1" parent="1" source="DqEBIRJADkIrMQfmdAqw-14" target="DqEBIRJADkIrMQfmdAqw-26">
          <mxGeometry relative="1" as="geometry" />
        </mxCell>
        <mxCell id="DqEBIRJADkIrMQfmdAqw-14" value="首页预览模块" style="rounded=0;whiteSpace=wrap;html=1;fillColor=#f5f5f5;strokeColor=#666666;fontColor=#333333;" vertex="1" parent="1">
          <mxGeometry x="1743" y="401.5" width="170" height="57.5" as="geometry" />
        </mxCell>
        <mxCell id="DqEBIRJADkIrMQfmdAqw-15" style="edgeStyle=orthogonalEdgeStyle;rounded=0;orthogonalLoop=1;jettySize=auto;html=1;entryX=0;entryY=0.221;entryDx=0;entryDy=0;entryPerimeter=0;strokeWidth=2;" edge="1" parent="1" source="DqEBIRJADkIrMQfmdAqw-16" target="DqEBIRJADkIrMQfmdAqw-26">
          <mxGeometry relative="1" as="geometry" />
        </mxCell>
        <mxCell id="DqEBIRJADkIrMQfmdAqw-16" value="区块信息模块" style="rounded=0;whiteSpace=wrap;html=1;fillColor=#f5f5f5;strokeColor=#666666;fontColor=#333333;" vertex="1" parent="1">
          <mxGeometry x="1743" y="489" width="170" height="57.5" as="geometry" />
        </mxCell>
        <mxCell id="DqEBIRJADkIrMQfmdAqw-17" style="edgeStyle=orthogonalEdgeStyle;rounded=0;orthogonalLoop=1;jettySize=auto;html=1;entryX=0;entryY=0.393;entryDx=0;entryDy=0;entryPerimeter=0;strokeWidth=2;" edge="1" parent="1" source="DqEBIRJADkIrMQfmdAqw-18" target="DqEBIRJADkIrMQfmdAqw-26">
          <mxGeometry relative="1" as="geometry" />
        </mxCell>
        <mxCell id="DqEBIRJADkIrMQfmdAqw-18" value="交易信息模块" style="rounded=0;whiteSpace=wrap;html=1;fillColor=#f5f5f5;strokeColor=#666666;fontColor=#333333;" vertex="1" parent="1">
          <mxGeometry x="1743" y="579" width="170" height="57.5" as="geometry" />
        </mxCell>
        <mxCell id="DqEBIRJADkIrMQfmdAqw-19" style="edgeStyle=orthogonalEdgeStyle;rounded=0;orthogonalLoop=1;jettySize=auto;html=1;entryX=-0.042;entryY=0.584;entryDx=0;entryDy=0;entryPerimeter=0;strokeWidth=2;" edge="1" parent="1" source="DqEBIRJADkIrMQfmdAqw-20" target="DqEBIRJADkIrMQfmdAqw-26">
          <mxGeometry relative="1" as="geometry" />
        </mxCell>
        <mxCell id="DqEBIRJADkIrMQfmdAqw-20" value="账户信息模块" style="rounded=0;whiteSpace=wrap;html=1;fillColor=#f5f5f5;strokeColor=#666666;fontColor=#333333;" vertex="1" parent="1">
          <mxGeometry x="1743" y="679" width="170" height="57.5" as="geometry" />
        </mxCell>
        <mxCell id="DqEBIRJADkIrMQfmdAqw-21" style="edgeStyle=orthogonalEdgeStyle;rounded=0;orthogonalLoop=1;jettySize=auto;html=1;entryX=0;entryY=0.766;entryDx=0;entryDy=0;entryPerimeter=0;strokeWidth=2;" edge="1" parent="1" source="DqEBIRJADkIrMQfmdAqw-22" target="DqEBIRJADkIrMQfmdAqw-26">
          <mxGeometry relative="1" as="geometry" />
        </mxCell>
        <mxCell id="DqEBIRJADkIrMQfmdAqw-22" value="合约信息模块" style="rounded=0;whiteSpace=wrap;html=1;fillColor=#f5f5f5;strokeColor=#666666;fontColor=#333333;" vertex="1" parent="1">
          <mxGeometry x="1743" y="775" width="170" height="57.5" as="geometry" />
        </mxCell>
        <mxCell id="DqEBIRJADkIrMQfmdAqw-23" style="edgeStyle=orthogonalEdgeStyle;rounded=0;orthogonalLoop=1;jettySize=auto;html=1;entryX=0;entryY=0.945;entryDx=0;entryDy=0;entryPerimeter=0;strokeWidth=2;" edge="1" parent="1" source="DqEBIRJADkIrMQfmdAqw-24" target="DqEBIRJADkIrMQfmdAqw-26">
          <mxGeometry relative="1" as="geometry" />
        </mxCell>
        <mxCell id="DqEBIRJADkIrMQfmdAqw-24" value="代币信息模块" style="rounded=0;whiteSpace=wrap;html=1;fillColor=#f5f5f5;strokeColor=#666666;fontColor=#333333;" vertex="1" parent="1">
          <mxGeometry x="1743" y="869" width="170" height="57.5" as="geometry" />
        </mxCell>
        <mxCell id="DqEBIRJADkIrMQfmdAqw-25" style="edgeStyle=orthogonalEdgeStyle;rounded=0;orthogonalLoop=1;jettySize=auto;html=1;strokeWidth=2;" edge="1" parent="1" source="DqEBIRJADkIrMQfmdAqw-26">
          <mxGeometry relative="1" as="geometry">
            <mxPoint x="2190" y="664.0000000000002" as="targetPoint" />
          </mxGeometry>
        </mxCell>
        <mxCell id="DqEBIRJADkIrMQfmdAqw-26" value="model&lt;br&gt;数据库交互层" style="rounded=0;whiteSpace=wrap;html=1;fillColor=#fff2cc;strokeColor=#d6b656;" vertex="1" parent="1">
          <mxGeometry x="2010" y="401.5" width="80" height="525" as="geometry" />
        </mxCell>
        <mxCell id="DqEBIRJADkIrMQfmdAqw-27" value="DB&lt;br&gt;数据库" style="rounded=1;whiteSpace=wrap;html=1;fillColor=#f8cecc;strokeColor=#b85450;" vertex="1" parent="1">
          <mxGeometry x="2190" y="399" width="80" height="527.5" as="geometry" />
        </mxCell>
        <mxCell id="DqEBIRJADkIrMQfmdAqw-32" value="" style="image;html=1;labelBackgroundColor=#ffffff;image=img/lib/clip_art/computers/Network_128x128.png;fillColor=none;" vertex="1" parent="1">
          <mxGeometry x="960" y="130" width="130" height="120" as="geometry" />
        </mxCell>
        <mxCell id="DqEBIRJADkIrMQfmdAqw-34" value="scan" style="text;html=1;align=center;verticalAlign=middle;resizable=0;points=[];autosize=1;fontStyle=3" vertex="1" parent="1">
          <mxGeometry x="1005" y="260" width="40" height="20" as="geometry" />
        </mxCell>
        <mxCell id="DqEBIRJADkIrMQfmdAqw-35" value="request&lt;br&gt;请求" style="rounded=1;whiteSpace=wrap;html=1;fillColor=#fff2cc;strokeColor=#d6b656;arcSize=20;" vertex="1" parent="1">
          <mxGeometry x="1241" y="160" width="110" height="60" as="geometry" />
        </mxCell>
        <mxCell id="DqEBIRJADkIrMQfmdAqw-47" value="" style="shape=flexArrow;endArrow=classic;html=1;fillColor=#0050ef;strokeColor=#001DBC;" edge="1" parent="1">
          <mxGeometry width="50" height="50" relative="1" as="geometry">
            <mxPoint x="1090" y="189.32999999999998" as="sourcePoint" />
            <mxPoint x="1230" y="189.32999999999998" as="targetPoint" />
          </mxGeometry>
        </mxCell>
        <mxCell id="DqEBIRJADkIrMQfmdAqw-48" value="" style="shape=flexArrow;endArrow=classic;html=1;fillColor=#0050ef;strokeColor=#001DBC;" edge="1" parent="1">
          <mxGeometry width="50" height="50" relative="1" as="geometry">
            <mxPoint x="1295.33" y="230" as="sourcePoint" />
            <mxPoint x="1295.33" y="380" as="targetPoint" />
          </mxGeometry>
        </mxCell>
      </root>
    </mxGraphModel>
  </diagram>
</mxfile>
